PathFileType	4	(X/Y/Z)	Run_200 02
DataRate	CameraRate	NumFrames	NumMarkers	Units	OrigDataRate	OrigDataStartFrame	OrigNumFrames
100	100	4	42	mm	100	203	128
Frame#	Time	LPSI			RPSI			RTH1			RTH2			RTH3			LTH1			LTH2			LTH3			RTB1			RTB2			RTB3			LTB1			LTB2			LTB3			RCAL			RTOE			RMT5			LCAL			LTOE			LMT5			LACR			RACR			CLAV			C7			RUA1			RUA2			RUA3			RLEL			RMEL			LUA1			LUA2			LUA3			LLEL			LMEL			RFAsuperior			RFAradius			RFAulna			LFAsuperior			LFAradius			LFAulna			RASI			LASI		
		X1	Y1	Z1	X2	Y2	Z2	X3	Y3	Z3	X4	Y4	Z4	X5	Y5	Z5	X6	Y6	Z6	X7	Y7	Z7	X8	Y8	Z8	X9	Y9	Z9	X10	Y10	Z10	X11	Y11	Z11	X12	Y12	Z12	X13	Y13	Z13	X14	Y14	Z14	X15	Y15	Z15	X16	Y16	Z16	X17	Y17	Z17	X18	Y18	Z18	X19	Y19	Z19	X20	Y20	Z20	X21	Y21	Z21	X22	Y22	Z22	X23	Y23	Z23	X24	Y24	Z24	X25	Y25	Z25	X26	Y26	Z26	X27	Y27	Z27	X28	Y28	Z28	X29	Y29	Z29	X30	Y30	Z30	X31	Y31	Z31	X32	Y32	Z32	X33	Y33	Z33	X34	Y34	Z34	X35	Y35	Z35	X36	Y36	Z36	X37	Y37	Z37	X38	Y38	Z38	X39	Y39	Z39	X40	Y40	Z40	X41	Y41	Z41	X42	Y42	Z42	

203	  2.030000	611.940241	1063.512035	-530.482545	612.591625	1057.651770	-447.180034	745.511487	849.035556	-301.740635	840.120430	732.105119	-305.206113	794.566274	617.371147	-312.681947	736.866102	880.939884	-679.137261	814.081321	769.932415	-661.541690	746.540910	626.549942	-655.602056	761.011998	398.327519	-363.608962	649.826914	382.810626	-323.119100	589.121352	303.593107	-385.410091	777.661241	392.830985	-588.792065	694.922177	336.304822	-651.631817	679.407515	208.668223	-568.587105	408.047704	331.490539	-420.776948	537.851547	138.736683	-394.912197	486.192710	148.871425	-314.556283	503.563524	107.007873	-542.927665	734.467349	 68.013767	-570.731595	689.741950	 45.566789	-649.358452	795.618258	1495.789259	-666.451829	741.372669	1501.103706	-326.314558	844.240528	1457.405175	-458.724695	713.971519	1537.771153	-516.988197	662.546565	1401.144915	-251.301635	581.765593	1340.706550	-287.833767	602.316699	1299.978765	-225.203471	573.599032	1209.111408	-200.699722	541.136675	1195.667746	-276.030480	759.388967	1402.543297	-769.617792	691.331937	1324.740625	-775.615777	746.262548	1301.148698	-833.089903	756.521988	1220.168252	-873.326440	686.509056	1187.655404	-843.720500	630.991775	1149.154594	-210.395380	811.336386	1100.908205	-301.754879	771.462291	1043.748982	-281.184013	829.199086	1155.452541	-790.927764	888.109488	1156.189822	-645.263476	872.383808	1092.522241	-668.774452	794.158655	977.287119	-357.466231	801.618634	989.682478	-614.456189	
204	  2.040000	611.371843	1064.641504	-530.997225	610.794907	1059.263097	-447.244092	745.259668	852.286338	-301.029220	843.026964	737.814649	-304.698853	800.856912	622.544358	-312.241990	733.554324	881.931562	-678.913673	808.125625	769.000053	-661.339014	737.284018	627.234558	-655.527739	774.366207	401.361871	-363.410410	663.830405	381.420466	-323.069275	606.416123	299.810634	-385.365608	764.321080	393.324371	-590.170419	679.763522	337.889029	-651.637844	662.219007	210.231430	-568.941969	423.693917	318.889636	-420.550815	563.913427	133.333334	-394.922939	511.976686	140.965112	-314.427485	485.210906	111.654241	-543.615872	714.653309	 67.930934	-571.213467	669.603559	 45.588355	-649.576035	798.974458	1496.804303	-665.651897	740.346275	1504.054087	-326.483985	843.995990	1458.874934	-457.831298	714.796780	1539.748700	-517.245437	658.228714	1406.910981	-251.692172	577.276093	1347.584383	-290.166465	594.988416	1307.722451	-225.675431	564.345312	1217.259688	-200.177397	533.077207	1203.844235	-275.994427	767.420760	1402.367908	-768.769926	699.837522	1323.625632	-776.334306	756.616974	1299.574575	-830.884287	769.224575	1218.549814	-870.245104	699.157903	1184.347044	-841.902395	620.703194	1155.992114	-209.098777	802.098517	1105.670387	-297.122111	761.443402	1049.066913	-277.883665	842.163044	1157.893082	-785.221767	897.778831	1163.945976	-638.475460	885.249264	1098.852754	-661.248304	791.946964	981.068182	-358.533739	799.872666	992.598753	-615.289909	
205	  2.050000	610.320310	1067.701993	-531.311512	608.233227	1062.872418	-447.153630	746.005751	857.001622	-299.939755	845.867683	744.425283	-304.368901	806.210779	628.654956	-311.889362	730.077590	883.551517	-678.442404	801.719031	768.810510	-660.937738	727.133575	628.872713	-654.646022	787.241008	405.017376	-363.470565	677.470366	380.043669	-322.887858	624.066684	295.604898	-385.146950	749.612651	394.496446	-590.198916	663.948651	340.434988	-651.152930	645.150896	212.593765	-569.438486	440.157706	304.550684	-420.305581	591.497474	127.760558	-394.644586	539.085255	132.522009	-313.979329	466.766437	116.560486	-543.911734	694.898558	 67.941898	-571.524750	649.391551	 45.709777	-649.517802	802.257145	1499.256957	-663.841807	739.029476	1508.433828	-326.414393	843.691812	1461.877953	-456.511405	715.737084	1542.971817	-517.181440	653.620566	1414.356527	-251.887908	572.624298	1355.715151	-291.792986	588.190323	1316.836907	-225.637496	555.797516	1227.125884	-199.319655	525.308127	1213.434419	-275.420522	774.939992	1404.066384	-767.378759	708.165150	1324.701970	-777.198281	766.895340	1299.953042	-828.330395	781.300287	1219.037254	-866.843838	711.893636	1183.276628	-839.839062	611.410374	1165.161607	-207.427783	793.287370	1112.565060	-292.487720	752.099361	1056.447124	-275.049936	854.446031	1162.869300	-779.363386	906.528476	1173.964120	-631.693931	897.261213	1107.694954	-653.639413	790.153460	986.231960	-359.025458	798.543208	996.914180	-615.570101	
206	  2.060000	609.609369	1071.953676	-531.678007	605.942197	1067.556900	-447.301078	747.348052	863.097998	-299.069770	848.620488	751.832531	-304.256089	810.681371	635.518658	-311.553980	726.451674	885.784593	-677.655189	794.980648	769.323457	-660.106851	716.443468	631.521767	-653.205327	799.508622	409.096318	-363.690428	690.786039	378.545897	-322.585556	642.113460	291.024145	-384.674425	733.859457	396.517201	-589.093444	647.724519	343.937647	-650.299886	628.455849	215.929288	-570.358515	457.700662	288.790904	-420.029261	620.399288	122.348815	-393.954169	567.368699	123.743464	-313.247491	448.543129	121.899843	-544.150834	675.281020	 67.946884	-571.717679	629.206998	 45.993936	-649.309699	805.336135	1503.129226	-661.349325	737.468136	1513.961000	-326.184646	843.352948	1466.175548	-454.741796	716.616218	1547.201999	-516.867739	649.095719	1422.918910	-252.066357	568.163674	1364.693120	-292.709224	582.184862	1326.929470	-225.156324	548.002719	1238.177787	-198.245584	517.951363	1224.105526	-274.464760	781.699622	1407.381914	-765.624793	716.131416	1327.314777	-777.696952	776.904187	1302.214105	-825.509485	792.659013	1221.455827	-863.260126	724.436711	1184.281210	-837.679447	603.123858	1175.942779	-205.401381	784.938776	1120.799852	-287.821523	743.270815	1065.190848	-272.325663	865.849859	1169.859333	-773.509001	914.395448	1185.670902	-625.105760	908.073874	1118.783087	-645.900954	788.547174	992.528864	-358.806695	797.399193	1002.379549	-615.161765	
